<?xml version="1.0" encoding="utf-8"?>
<!-- Generator: Adobe Illustrator 27.8.1, SVG Export Plug-In . SVG Version: 6.00 Build 0)  -->
<svg version="1.1" id="Layer_1" xmlns="http://www.w3.org/2000/svg" xmlns:xlink="http://www.w3.org/1999/xlink" x="0px" y="0px"
	 viewBox="0 0 200 100" style="enable-background:new 0 0 200 100;" xml:space="preserve">
<g>
	<g>
		<path d="M30.9,20.9c0.2-0.2,0.3-0.5,0.5-0.7c0.5-0.8,0-2-0.9-2.2c-4.2-0.8-7.9,1.6-11,4.3c-2.9,2.6-5.4,5.8-7,9.3
			c-1.6,3.6-1.9,7.6,1.5,10.2c3.1,2.4,7.4,3.3,11.2,3.7c4.9,0.5,9.9-0.1,14.6-1.7c1.8-0.6,1-3.5-0.8-2.9c-4.4,1.5-9,2.1-13.6,1.7
			c-2.2-0.2-4.4-0.7-6.4-1.4c-1.6-0.6-3.5-1.4-4.3-3c-1-1.9,0.1-4.3,1-6.1c0.9-1.8,2-3.5,3.3-5c2.5-2.8,6.6-7,10.7-6.2
			c-0.3-0.7-0.6-1.5-0.9-2.2c-0.2,0.2-0.3,0.5-0.5,0.7C27.2,21,29.8,22.5,30.9,20.9L30.9,20.9z"/>
	</g>
</g>
<g>
	<g>
		<path d="M55,21.3c-1.2-1.2-3-1.5-4.6-0.9c-1.7,0.7-2.8,2.3-3.2,4c-0.4,1.8,0,3.8,0.5,5.6c0.5,1.5,1.1,2.9,2.2,4.1
			c2.7,2.9,6.7,1.8,9.5-0.2c2.7-2,5.1-4.9,4.6-8.4c-0.7-4.2-4.9-6.2-8.7-6.5c-0.8-0.1-1.5,0.7-1.5,1.5c0,0.9,0.7,1.4,1.5,1.5
			c2.2,0.2,4.6,1.1,5.5,3.2c0.9,2-0.4,3.9-1.9,5.3c-1.4,1.3-4,3.2-6,2.3c-1.8-0.9-2.5-3.6-2.8-5.4c-0.2-1.1-0.2-2.5,0.6-3.4
			c0.6-0.7,1.6-1,2.2-0.4C54.2,24.8,56.3,22.6,55,21.3L55,21.3z"/>
	</g>
</g>
<g>
	<g>
		<path d="M79,15.3c-3.7-1.1-6.2,3.7-7,6.5c-0.5,1.6-0.7,3.3-0.7,5c-0.1,1.7-0.2,3.8,1.4,4.9c1.5,1.1,3.7,1.2,5.4,1.3
			c1.8,0.1,4.1,0,5.7-1c3.3-1.9,2.8-7,1.5-10c-1.7-3.9-5.1-6.5-8.6-8.7c-1.6-1-3.2,1.6-1.5,2.6c2.2,1.4,4.5,2.9,6.1,5
			c1.5,2,2.5,4.8,1.8,7.3c-0.4,1.3-1.5,1.5-2.7,1.6c-1.5,0.2-3,0.1-4.4-0.2c-0.4-0.1-1.3-0.1-1.6-0.5c0.1,0.1-0.1-0.3-0.1-0.4
			c-0.1-0.3,0-0.6,0-1c0-1.2,0.1-2.5,0.3-3.7c0.2-1.3,0.6-2.6,1.3-3.8c0.4-0.7,1.4-2.5,2.5-2.2C80.1,18.7,80.9,15.8,79,15.3L79,15.3
			z"/>
	</g>
</g>
<g>
	<g>
		<path d="M91.2,15.2c0,2.4,0,4.8,0,7.2c0,2-0.3,4.3,0.8,6.1c1.3,2,3.9,2,6.1,2c2.4,0,4.8-0.3,7.1-0.9c1.9-0.5,1.1-3.4-0.8-2.9
			c-1.9,0.5-3.9,0.8-5.9,0.8c-1,0-2,0-2.9-0.1c-0.6-0.1-0.9-0.2-1.1-0.7c-0.3-0.6-0.2-1.3-0.2-2c0-1,0-2,0-3c0-2.1,0-4.2,0-6.4
			C94.2,13.2,91.2,13.2,91.2,15.2L91.2,15.2z"/>
	</g>
</g>
<g>
	<g>
		<path d="M26,52.7c-2.2-0.7-3.8,1.2-5,2.6c-1.4,1.6-2.6,3.4-3.6,5.3c-2.1,3.8-3.6,8-4.1,12.3c-0.3,2,0.4,3.8,2.3,4.7
			c1.7,0.8,3.7,0.6,5.6,0.6c4.4-0.2,8.7-1.1,12.8-2.6c4.7-1.7,9-4.2,12.9-7.4c1.5-1.2-0.6-3.3-2.1-2.1c-5.5,4.5-12.1,7.4-19,8.6
			c-1.7,0.3-3.4,0.5-5.2,0.5c-1,0-3.3,0.4-4.2-0.6C16,74,16.3,73,16.4,72.4c0.2-0.9,0.3-1.8,0.6-2.6c0.4-1.7,1-3.3,1.7-4.9
			c0.8-1.8,1.8-3.6,2.9-5.2c0.5-0.8,1.1-1.6,1.8-2.3c0.4-0.4,1.3-1.9,2-1.7C27.1,56.2,27.9,53.3,26,52.7L26,52.7z"/>
	</g>
</g>
<g>
	<g>
		<path d="M53.7,51.4c-1.4-0.8-3.1-0.7-4.5,0c-1.4,0.7-2.3,2.2-2.5,3.7c-0.5,3.4,1.7,6.2,4.2,8.2c2.3,1.7,6.4,3.8,9,1.5
			c2.3-2.1,2-6,0.8-8.6c-1.5-3.1-4.7-4.9-7.9-5.8c-1.9-0.5-2.7,2.4-0.8,2.9c2,0.6,3.8,1.5,5.2,3.1c1.3,1.5,1.8,3.5,1.2,5.3
			c-0.3,0.8-0.6,1.3-1.6,1.2c-1-0.1-2-0.6-2.9-1.1c-1.8-1-3.6-2.6-4.2-4.6c-0.2-0.9-0.2-1.9,0.4-2.7c0.3-0.4,0.6-0.5,1-0.6
			c0.4-0.1,0.7,0,1,0.1C53.8,55,55.3,52.4,53.7,51.4L53.7,51.4z"/>
	</g>
</g>
<g>
	<g>
		<path d="M79.6,43.3c-2.8,0.6-5.5,2.1-7.4,4.3c-1.9,2.2-4.2,6.2-1.3,8.6c1.3,1.1,3.2,1.2,4.8,1.4c1.8,0.2,3.6,0.2,5.4-0.1
			c1.7-0.3,3.1-1.1,4.1-2.6c0.9-1.4,1.4-3.1,1.5-4.7c0.4-3.6-1.3-7.4-4.6-9c-0.7-0.4-1.6-0.2-2.1,0.5c-0.4,0.7-0.2,1.7,0.5,2.1
			c2,1,3.1,3,3.2,5.1c0.1,2-0.5,5-2.7,5.6c-1.2,0.3-2.6,0.3-3.9,0.2c-1.3-0.1-2.7-0.1-3.9-0.5c-1.8-0.7,0.3-3.5,1.1-4.4
			c1.6-1.8,3.7-3,6-3.5c0.8-0.2,1.3-1.1,1-1.8C81.2,43.5,80.4,43.2,79.6,43.3L79.6,43.3z"/>
	</g>
</g>
<g>
	<g>
		<path d="M93.6,36.2c-0.6,3.4-0.8,7-0.2,10.5c0.2,1.5,0.9,2.9,2.3,3.7c1.4,0.8,3.4,0.7,4.9,0.9c7.4,0.7,14.8,0.3,22-1.3
			c1.9-0.4,1.1-3.3-0.8-2.9c-6,1.3-12.2,1.8-18.3,1.4c-1.5-0.1-3-0.2-4.5-0.4C98.3,48,97.5,48,97,47.6c-0.5-0.3-0.6-1-0.7-1.6
			c-0.5-3-0.3-6.2,0.2-9.1C96.8,35.1,93.9,34.3,93.6,36.2L93.6,36.2z"/>
	</g>
</g>
<g>
	<g>
		<path d="M51.6,75.2c1.8,2.2,3.7,4.4,5.5,6.6c1.6,1.9,3.3,3.9,5.9,4.1c2.5,0.2,3.9-1.5,4.8-3.6c1-2.4,1.6-4.9,1.9-7.6
			c-0.9,0.4-1.7,0.7-2.6,1.1c2.8,3.6,7.1,9.9,12.6,6.9c2.4-1.3,2.9-4.2,3.5-6.6c0.7-3,1.1-6.1,1.4-9.2c0.2-1.9-2.8-1.9-3,0
			c-0.2,2.4-0.5,4.7-1,7c-0.2,1.2-0.5,2.4-0.8,3.6c-0.2,0.9-0.5,1.9-1.3,2.5c-1.6,1.2-3.7,0-5-1.1c-1.6-1.5-2.9-3.4-4.2-5.1
			c-0.9-1.1-2.4-0.1-2.6,1.1c-0.2,1.9-0.7,3.8-1.3,5.6c-0.6,1.7-1.4,3.4-3.4,2.2c-1.6-0.9-2.8-2.9-4-4.3c-1.4-1.7-2.8-3.4-4.3-5.1
			C52.4,71.6,50.3,73.7,51.6,75.2L51.6,75.2z"/>
	</g>
</g>
<g>
	<g>
		<path d="M99.2,67.7c-0.2-0.1-0.4-0.1-0.6-0.2c-0.1,1-0.3,2-0.4,2.9c2-0.2,4,0.4,6-0.2c1.7-0.5,3.2-1.8,3.5-3.6
			c0.3-1.8-0.3-3.6-1.5-4.9c-1.4-1.4-3.3-2-5.2-2.2c-1.8-0.2-3.7-0.1-5.3,0.9c-1.7,1.1-2.4,3-2.7,4.9c-0.4,3.8,1.1,7.5,3.6,10.3
			c2.9,3.3,7.3,5.1,11.5,5.7c0.8,0.1,1.6-0.2,1.8-1c0.2-0.7-0.2-1.7-1-1.8c-5.4-0.9-11.1-3.7-12.7-9.4c-0.6-2.2-0.8-5.9,2-6.5
			c2.1-0.4,5.7,0,6.4,2.4c1,3.5-4.8,2.2-6.5,2.4c-1.7,0.2-2,2.3-0.4,2.9c0.2,0.1,0.4,0.1,0.6,0.2C100.2,71.2,101,68.3,99.2,67.7
			L99.2,67.7z"/>
	</g>
</g>
<g>
	<g>
		<path d="M117.9,60c0-0.2-0.1-0.4-0.1-0.6c-0.2-0.8-1.1-1.3-1.8-1c-0.9,0.2-1.2,1-1,1.8c0.7,4.7,1.6,9.3,2.9,13.8
			c0.4,1.6,3,1.3,2.9-0.4c-0.1-1.6-0.3-3.6,0.5-5.1c0.5-1.1,1.4-1.8,2.5-1.2c0.5,0.3,0.9,0.8,1.1,1.3c0.3,0.6-0.1,0.7-0.6,0.9
			c-1.6,0.7-3.5,1.3-5.3,1.7c-1.9,0.5-1.1,3.3,0.8,2.9c1.3-0.3,2.6-0.7,3.9-1.2c1.1-0.4,2.5-0.8,3.4-1.7c2-2,0.4-5.1-1.6-6.4
			c-2.2-1.4-4.8-0.7-6.3,1.3c-1.6,2.1-1.6,4.9-1.4,7.4c1-0.1,2-0.3,2.9-0.4c-1.3-4.5-2.2-9.1-2.9-13.8c-1,0.3-1.9,0.5-2.9,0.8
			c0,0.2,0.1,0.4,0.1,0.6c0.2,0.8,1.1,1.3,1.8,1C117.7,61.6,118.1,60.8,117.9,60L117.9,60z"/>
	</g>
</g>
<g>
	<g>
		<path d="M136.9,52c-1.6,1.6-3,3.5-3.6,5.7c-0.8,2.7,1.5,4.4,3.8,5c0.5,0.1,1,0.2,1.5,0.2c0.1,0,0.3,0.1,0.4,0.1
			c0.2,0.1,0.2,0.1,0,0c0-0.1,0-0.2,0-0.1c0,0-0.2,0.5-0.2,0.5c-0.1,0.1-0.2,0.3-0.3,0.4c-0.3,0.3-0.6,0.6-0.9,0.9
			c-1.5,1.1-3.4,1.5-5.2,1.7c-0.8,0.1-1.5,0.6-1.5,1.5c0,0.7,0.7,1.6,1.5,1.5c2.1-0.3,4.3-0.7,6.2-1.8c1.8-1.1,4.2-3.4,3.3-5.8
			c-0.4-1.2-1.5-1.7-2.7-1.8c-0.6-0.1-1.1-0.2-1.7-0.3c-0.4-0.1-1-0.3-1.2-0.7c-0.3-0.4,0.5-1.8,0.8-2.2c0.6-1,1.2-1.9,2.1-2.6
			C140.4,52.8,138.3,50.7,136.9,52L136.9,52z"/>
	</g>
</g>
<g>
	<g>
		<path d="M144.1,45.1c1.3,2.8,2.4,5.8,3.4,8.8c0.2,0.7,1.1,1.3,1.8,1c0.7-0.2,1.3-1,1-1.8c-1-3.2-2.3-6.4-3.7-9.5
			c-0.3-0.7-1.4-0.9-2.1-0.5C143.9,43.5,143.8,44.3,144.1,45.1L144.1,45.1z"/>
	</g>
</g>
<g>
	<g>
		<path d="M142.9,36.7c1.9,0,1.9-3,0-3C141,33.7,141,36.7,142.9,36.7L142.9,36.7z"/>
	</g>
</g>
<g>
	<g>
		<path d="M154.3,22.9c0.9,12.4,2.4,24.8,4.3,37.1c0.3,1.9,3.2,1.1,2.9-0.8c-1.9-12-3.3-24.1-4.2-36.3
			C157.1,21,154.1,20.9,154.3,22.9L154.3,22.9z"/>
	</g>
</g>
<g>
	<g>
		<path d="M154,45.8c0-0.1,0-0.1,0-0.2c-0.1,0.3-0.1,0.5-0.2,0.8c0,0,0.1-0.1,0.1-0.1c-0.2,0.2-0.4,0.4-0.5,0.5
			c0.2-0.2,0.7-0.1,1.1-0.2c0.5-0.1,1.1-0.1,1.6-0.2c1.1-0.1,2.3-0.2,3.4-0.2c2.3-0.1,4.5-0.1,6.8,0c1.9,0.1,1.9-2.9,0-3
			c-2.7-0.1-5.4-0.1-8.2,0.1c-1.4,0.1-2.7,0.2-4.1,0.3c-1.5,0.2-2.8,0.4-3,2.1c-0.1,0.8,0.8,1.5,1.5,1.5
			C153.4,47.3,153.9,46.6,154,45.8L154,45.8z"/>
	</g>
</g>
<g>
	<g>
		<path d="M173.8,58.1c2.7,0,5.4,0,8.1,0c1,0,2.2,0.1,3-0.7c0.7-0.7,1-1.6,1.1-2.6c0.5-4.1-3.1-7.5-7.1-7c-4.4,0.6-8.6,4.1-9.8,8.4
			c-1.2,4.4-1.1,9.9,1.4,13.8c2.6,3.9,7,6.3,11.7,6.6c1.9,0.1,1.9-2.9,0-3c-3.7-0.2-7.4-2.3-9.4-5.5c-1.1-1.9-1.4-4.1-1.4-6.3
			c0-2.2,0.2-4.7,1.3-6.7c1.6-2.7,7.4-6.5,9.7-2.9c0.4,0.6,0.7,1.5,0.6,2.2c0,0.2-0.1,0.3-0.1,0.5c-0.2,0.3-0.1,0.3,0.2,0
			c-0.5,0.1-1.1,0-1.6,0c-2.5,0-5.1,0-7.6,0C171.9,55.1,171.9,58.1,173.8,58.1L173.8,58.1z"/>
	</g>
</g>
</svg>
